<svg version="1.1" id="Layer_1" xmlns="http://www.w3.org/2000/svg" xmlns:xlink="http://www.w3.org/1999/xlink" x="0px" y="0px" viewBox="0 0 302.5 64.2" style="enable-background:new 0 0 302.5 64.2;" xml:space="preserve">
 <style type="text/css">
  .st0{fill:#B7D433;}
	.st1{fill:#00B9F1;}
	.st2{fill:#0091C0;}
	.st3{fill:#006580;}
 </style>
 <g>
  <rect x="238.6" y="0" class="st0" width="63.9" height="63.9">
  </rect>
  <path class="st1" d="M252.9,37.8c-9.6,12.5-14.2,25.7-14.3,26.1h13.1C251.7,57.6,251.6,48,252.9,37.8">
  </path>
  <path class="st1" d="M244,36.5c3.2-2.4,6.7-5,10.4-7.3c2.5-11.2,7.2-22.1,16.1-28.8c9,6.7,13.7,17.5,16.1,28.8
		c3.7,2.3,7.2,4.9,10.4,7.3C292.5,22.5,284.4,7.2,270.5,0h0C256.7,7.2,248.6,22.5,244,36.5">
  </path>
  <path class="st1" d="M289.4,63.9h13.1c-0.1-0.4-4.7-13.6-14.3-26.1C289.5,48,289.4,57.6,289.4,63.9">
  </path>
  <path class="st1" d="M302.5,63.9L302.5,63.9V40.8c-1.6-1.4-3.5-2.8-5.4-4.3C301.2,49.1,302.5,60.6,302.5,63.9">
  </path>
  <path class="st1" d="M270.5,21.7c7.1,4.1,13,10,17.6,16.1c-0.4-2.9-0.9-5.8-1.5-8.7c-5.2-3.3-10.8-6.3-16.1-7.9
		c-5.3,1.7-10.9,4.6-16.1,7.9c-0.6,2.9-1.1,5.8-1.5,8.7C257.6,31.7,263.4,25.8,270.5,21.7">
  </path>
  <path class="st1" d="M238.6,40.8v23.1h0c0-3.4,1.3-14.9,5.4-27.5C242,38,240.2,39.5,238.6,40.8">
  </path>
  <path class="st2" d="M286.7,29.2c0.6,2.9,1.1,5.8,1.5,8.7c9.6,12.5,14.2,25.7,14.3,26.1h0c0-3.4-1.3-14.9-5.4-27.5
		C293.9,34,290.4,31.5,286.7,29.2">
  </path>
  <path class="st2" d="M254.4,29.2c-3.7,2.3-7.2,4.9-10.4,7.3c-4.2,12.6-5.4,24.1-5.4,27.5h0c0.1-0.4,4.7-13.6,14.3-26.1
		C253.3,35,253.8,32.1,254.4,29.2">
  </path>
  <path class="st3" d="M10.6,58.1c-0.2,3.9-2,6.1-5.1,6.1C2,64.2,0,61.5,0,55.3c0-6.2,2-8.9,5.5-8.9c3.5,0,4.9,2.5,4.9,5.3H8.9
		c0-2.3-1.2-4-3.4-4c-2.5,0-4,2-4,7.6c0,5.6,1.5,7.6,4,7.6c2.2,0,3.4-1.8,3.6-4.8H10.6z">
  </path>
  <path class="st3" d="M13.6,57.5c0-4.1,1.3-5.5,2.9-5.5c1.6,0,2.9,1.4,2.9,5.5c0,4.1-1.2,5.5-2.9,5.5C14.8,63,13.6,61.6,13.6,57.5
		 M12,57.5c0,4.5,1.6,6.7,4.4,6.7c2.8,0,4.4-2.2,4.4-6.7c0-4.4-1.6-6.7-4.4-6.7C13.6,50.8,12,53.1,12,57.5">
  </path>
  <path class="st3" d="M23,51.1h1.3v1.8h0.1c0.7-1.4,1.8-2.1,3.2-2.1c1.5,0,2.5,0.9,2.7,2.2h0.1c0.6-1.4,1.6-2.2,3.3-2.2
		c1.8,0,3,1,3,3.3v9.8h-1.4v-9.6c0-1.5-0.7-2.3-2-2.3c-1.4,0-2.6,1.3-2.6,3.3v8.6h-1.4v-9.6c0-1.5-0.7-2.3-2-2.3
		c-1.4,0-2.6,1.3-2.6,3.3v8.6H23V51.1z">
  </path>
  <path class="st3" d="M39.6,51.1h1.3v1.8h0c0.7-1.4,1.8-2.1,3.3-2.1c1.5,0,2.5,0.9,2.7,2.2h0.1c0.6-1.4,1.6-2.2,3.2-2.2
		c1.8,0,3,1,3,3.3v9.8h-1.4v-9.6c0-1.5-0.7-2.3-2-2.3c-1.4,0-2.6,1.3-2.6,3.3v8.6h-1.4v-9.6c0-1.5-0.7-2.3-2-2.3
		c-1.4,0-2.6,1.3-2.6,3.3v8.6h-1.4V51.1z">
  </path>
  <path class="st3" d="M57,56.4c0-3.2,0.9-4.3,2.7-4.3c1.8,0,2.7,1.2,2.7,4.3H57z M62.4,59.7c-0.2,2.2-1.2,3.3-2.7,3.3
		c-1.4,0-2.7-1.1-2.7-4.8v-0.6h7V57c0-4.3-1.3-6.2-4.1-6.2c-2.8,0-4.4,2.2-4.4,6.7c0,4.8,1.6,6.7,4.3,6.7c2.4,0,3.9-1.8,4.1-4.5
		H62.4z">
  </path>
  <path class="st3" d="M66.2,51.1h1.4v2h0c0.6-1.4,1.7-2.3,3.2-2.3c0.2,0,0.3,0,0.5,0.1v1.4c-0.2,0-0.5-0.1-0.7-0.1
		c-1.6,0-3.1,1.2-3.1,3.6v8h-1.4V51.1z">
  </path>
  <path class="st3" d="M80.6,59.7c-0.2,2.7-1.7,4.5-4.1,4.5c-2.7,0-4.3-1.9-4.3-6.7c0-4.4,1.6-6.7,4.4-6.7c2.4,0,3.8,1.5,3.9,4.1
		h-1.4c-0.2-2-1-2.9-2.5-2.9c-1.6,0-2.9,1-2.9,5.5c0,4.8,1.4,5.5,2.7,5.5c1.5,0,2.4-1.1,2.6-3.3H80.6z">
  </path>
  <path class="st3" d="M82.8,51.1h1.4v12.8h-1.4V51.1z M82.8,46.7h1.4v2.5h-1.4V46.7z">
  </path>
  <path class="st3" d="M93,59.4c0,2.3-1.2,3.6-3,3.6c-1.2,0-2-1-2-2.5c0-1.5,0.7-2.3,2.2-2.6l1.2-0.3c0.6-0.1,1.4-0.4,1.5-0.8h0V59.4
		z M88.4,54.9c0-1.9,0.7-2.9,2.5-2.9c1.3,0,2.2,0.6,2.2,2.2c0,1.5-0.2,1.7-1.2,2L89.1,57c-1.8,0.5-2.6,1.8-2.6,3.5
		c0,2.2,1,3.6,3.2,3.6c1.4,0,2.7-0.5,3.3-2.2h0.1v0.4c0,1.3,0.7,1.6,1.9,1.6c0.2,0,0.4-0.1,0.7-0.2v-1.1h-0.4
		c-0.5,0-0.7-0.3-0.7-1.1v-7.6c0-2-1-3.4-3.6-3.4c-2.7,0-4,1.5-4,4.1H88.4z">
  </path>
  <rect x="97.5" y="46.7" class="st3" width="1.4" height="17.2">
  </rect>
  <path class="st3" d="M109,48h2.7c2.4,0,3.6,0.8,3.6,3.1c0,2-1.2,3.1-3.9,3.1H109V48z M109,55.6h2.9c2.7,0,4,1.2,4,3.5
		c0,2.3-1.3,3.5-4,3.5H109V55.6z M107.5,63.9h4.7c3.3,0,5.2-1.8,5.2-4.8c0-2.2-1.1-3.9-3.2-4.3v0c1.7-0.4,2.6-2,2.6-3.7
		c0-2.6-1.3-4.3-4.6-4.3h-4.7V63.9z">
  </path>
  <path class="st3" d="M125.4,59.4c0,2.3-1.2,3.6-3,3.6c-1.3,0-2-1-2-2.5c0-1.5,0.7-2.3,2.2-2.6l1.2-0.3c0.6-0.2,1.4-0.4,1.5-0.8h0
		V59.4z M120.8,54.9c0-1.8,0.7-2.9,2.5-2.9c1.3,0,2.2,0.6,2.2,2.2c0,1.5-0.2,1.7-1.2,2l-2.7,0.8c-1.8,0.5-2.6,1.8-2.6,3.5
		c0,2.2,1,3.6,3.3,3.6c1.4,0,2.7-0.5,3.3-2.2h0.1v0.4c0,1.3,0.7,1.6,1.9,1.6c0.2,0,0.4-0.1,0.7-0.1v-1.1h-0.4
		c-0.5,0-0.7-0.3-0.7-1.1v-7.6c0-2-1-3.4-3.6-3.4c-2.7,0-4,1.5-4,4.1H120.8z">
  </path>
  <path class="st3" d="M129.9,51.1h1.3v1.8h0c0.7-1.4,2-2.1,3.3-2.1c2,0,3.3,1,3.3,3.4v9.7h-1.4v-9.2c0-1.8-0.7-2.6-2.2-2.6
		c-1.7,0-2.8,1.3-2.8,3.3v8.6h-1.4V51.1z">
  </path>
  <polygon class="st3" points="140.4,46.7 141.8,46.7 141.8,57.5 141.9,57.5 146.8,51.1 148.6,51.1 144.8,55.9 149.3,63.9 
		147.5,63.9 143.7,57.2 141.8,59.5 141.8,63.9 140.4,63.9 	">
  </polygon>
  <path class="st3" d="M157.8,57.5c0-4.1,1.2-5.5,2.9-5.5c1.6,0,2.9,1.4,2.9,5.5c0,4.1-1.3,5.5-2.9,5.5
		C159.1,63,157.8,61.6,157.8,57.5 M156.3,57.5c0,4.5,1.6,6.7,4.4,6.7c2.8,0,4.4-2.2,4.4-6.7c0-4.4-1.6-6.7-4.4-6.7
		C157.9,50.9,156.3,53.1,156.3,57.5">
  </path>
  <path class="st3" d="M167.8,52.4H166v-1.2h1.8v-1.5c0-1.8,0.4-3.1,2.8-3.1c0.4,0,0.7,0,0.9,0.1v1.2c-0.2,0-0.4-0.1-0.7-0.1
		c-1.1,0-1.6,0.4-1.6,1.9v1.5h2.3v1.2h-2.3v11.6h-1.4V52.4z">
  </path>
  <path class="st3" d="M181.2,48h2.5c3.4,0,4.8,1.7,4.8,7.3c0,5.6-1.4,7.3-4.8,7.3h-2.5V48z M179.6,63.9h4.1c5,0,6.2-3,6.2-8.6
		c0-5.6-1.2-8.6-6.2-8.6h-4.1V63.9z">
  </path>
  <path class="st3" d="M192.6,51.1h1.5v9c0,2.1,0.7,2.9,2.2,2.9c1.6,0,2.8-1.3,2.8-3.3v-8.6h1.4v12.8h-1.3v-1.8h-0.1
		c-0.7,1.4-2,2.1-3.3,2.1c-2,0-3.3-1-3.3-3.4V51.1z">
  </path>
  <path class="st3" d="M204.6,57.5c0-4.7,1.3-5.5,2.8-5.5c1.4,0,2.8,0.7,2.8,5.5c0,4.7-1.3,5.5-2.8,5.5
		C205.9,63,204.6,62.3,204.6,57.5 M203.2,63.9h1.3v-2.1h0c0.4,1.5,1.6,2.4,3.1,2.4c2.8,0,4.1-2.3,4.1-6.7c0-4.4-1.3-6.7-4.1-6.7
		c-1.6,0-2.7,0.9-3,2.2h0v-6.3h-1.4V63.9z">
  </path>
  <path class="st3" d="M219.8,59.4c0,2.3-1.2,3.6-3,3.6c-1.2,0-2-1-2-2.5c0-1.5,0.7-2.3,2.2-2.6l1.2-0.3c0.6-0.2,1.4-0.4,1.5-0.8h0
		V59.4z M215.2,54.9c0-1.8,0.7-2.9,2.5-2.9c1.3,0,2.2,0.6,2.2,2.2c0,1.5-0.2,1.7-1.2,2l-2.7,0.8c-1.8,0.5-2.6,1.8-2.6,3.5
		c0,2.2,1,3.6,3.3,3.6c1.4,0,2.7-0.5,3.3-2.2h0v0.4c0,1.3,0.7,1.6,1.9,1.6c0.2,0,0.4-0.1,0.7-0.1v-1.1H222c-0.5,0-0.8-0.3-0.8-1.1
		v-7.6c0-2-1-3.4-3.6-3.4c-2.7,0-4,1.5-4,4.1H215.2z">
  </path>
  <path class="st3" d="M224.3,51.1h1.4v12.8h-1.4V51.1z M224.3,46.7h1.4v2.5h-1.4V46.7z">
  </path>
  <path class="st3" d="M98,17.6c0,0,0.3,13.4,0.3,14.2c0,0.8,0.1,2.5-0.8,3.6c0.8-0.4,1.9-2.3,1.9-4.8c0-1.2-0.3-14.4-0.3-14.4
		L98,17.6z">
  </path>
  <path class="st3" d="M17.6,22.6c0,0,0.8,10.9,0.4,12.3c-0.7,2.6-2,3.6-5.2,4.3c0.5,0.3,2.2,0.8,3.6-0.2c1.7-1.2,2.9-4.2,2.9-7.1
		c0-1.3-0.5-11-0.5-11L17.6,22.6z">
  </path>
  <path class="st3" d="M93.2,17.6c0,0,0.3,12.8,0.4,14.2c0.1,1-0.3,1.3-1.6,1.3H88c-0.5,0-2.3,0-2.9-0.7c-0.6-0.7-0.7-1-0.7-4.6
		c0-4.5,0.2-5.8-0.4-6.8l-1.1,1.6c0.3,0.6,0.6,0.9,0.5,4.5c-0.1,3.6,0.5,4.1-0.1,5.3c-0.4,0.8-2.6,0.7-3.1,0.7h-4.7
		c-0.5-1.4-1.8-2.7-4.7-4.5c-3.6-2.4-6-3.7-6-5.7c0-1.2,0.2-1.8,0.2-1.8s-1.1,1.4-1.1,3.1c0,1.8,1.6,3.4,4.4,5.1
		c2,1.2,4.4,2.5,5.6,3.9H28c-0.5,0-2.8,0-3.2-0.9c-0.7-1.5-0.2-6.7-0.2-10.3c0-3.7,0.1-4.7-0.4-5.7l-1,1.7c0.3,0.6,0.5,0.6,0.4,4.3
		c-0.1,3.6-0.3,9-0.2,10.2c0.2,1.8,0.6,2.6,4.6,2.6H75c0.1,1.4-0.1,3-1.5,5.7c1.5-1.8,2.2-3.7,2.3-5.7h4.5c0.9,0,3.2,0.1,3.9-2
		c0.6,1.8,1.6,2,3.7,2l4.1,0c0.9,0,1.5-0.3,1.9-1.2c0.4-0.8,0.7-1.9,0.7-3.2c0-1.2-0.3-14.4-0.3-14.4L93.2,17.6z">
  </path>
  <path class="st3" d="M13.8,33.5c0-1.7-0.7-2.1-1.8-3.5c-0.9-1.1-1.7-1.8-1.7-2.2c0-0.4,1-4,3.2-4.7l0.3-2c-1.6,0.1-4.2,4.3-4.5,7.7
		c-0.1,0.7,0.8,1.3,1.4,2c1,1.1,2.3,1.8,2.3,2.2c0,0.3-0.5,0.2-0.9,0.2h-2H4.6c-2.5,0-3.8-1-3.8-5.1c0-4.5,1-6.1,1-6.1l-0.1-0.9
		c0,0-1.8,2.5-1.8,7.5c0,5.1,0.6,6.5,4.5,6.5h5.6h2.5C12.6,35.1,13.8,35.2,13.8,33.5">
  </path>
  <path class="st3" d="M201.4,19.4c0.6-0.4,1-1.6,1-1.6s-0.5-1.1-1.2-1.6l-0.8,1.6C200.5,17.9,201.4,18.5,201.4,19.4">
  </path>
  <path class="st3" d="M82.7,19.4c0.6-0.4,1-1.6,1-1.6s-0.5-1.1-1.1-1.6l-0.8,1.6C81.7,17.9,82.6,18.5,82.7,19.4">
  </path>
  <path class="st3" d="M84.7,19.4c0.6-0.4,1-1.6,1-1.6s-0.5-1.1-1.2-1.6l-0.8,1.6C83.7,17.9,84.6,18.5,84.7,19.4">
  </path>
  <path class="st3" d="M213.8,40.4c0.6-0.4,1-1.6,1-1.6s-0.5-1.1-1.2-1.6l-0.8,1.6C212.8,38.9,213.7,39.5,213.8,40.4">
  </path>
  <path class="st3" d="M134.9,40.4c0.6-0.4,1-1.6,1-1.6s-0.5-1.1-1.1-1.6l-0.8,1.6C133.9,38.9,134.8,39.5,134.9,40.4">
  </path>
  <path class="st3" d="M113.9,40.4c0.6-0.4,1-1.6,1-1.6s-0.5-1.1-1.2-1.6l-0.8,1.6C112.9,38.9,113.8,39.5,113.9,40.4">
  </path>
  <path class="st3" d="M68.8,40.4c0.6-0.4,1-1.6,1-1.6s-0.5-1.1-1.2-1.6l-0.8,1.6C67.8,38.9,68.7,39.5,68.8,40.4">
  </path>
  <path class="st3" d="M115.8,40.4c0.6-0.4,1-1.6,1-1.6s-0.5-1.1-1.1-1.6l-0.8,1.6C114.8,38.9,115.7,39.5,115.8,40.4">
  </path>
  <path class="st3" d="M5.6,40.4c0.6-0.4,1-1.6,1-1.6s-0.5-1.1-1.2-1.6l-0.8,1.6C4.6,38.9,5.5,39.5,5.6,40.4">
  </path>
  <path class="st3" d="M7.5,40.4c0.6-0.4,1-1.6,1-1.6S8,37.7,7.4,37.3l-0.8,1.6C6.5,38.9,7.4,39.5,7.5,40.4">
  </path>
  <path class="st3" d="M181.1,27.5c3.6-0.4,3.6-3.7,3.6-3.7s-2.3,0.4-3,0c-0.2-0.1,1.4-1.4,2.4-1.4c0.2-0.7,0.1-1.2,0.1-1.2
		s-1.2,0.4-2.2,1.2c-1,0.8-1.5,1.7-1.4,2.2c0.6,0.8,3.2,0.4,3.2,0.4s-0.1,1-3.2,1.6c-3.1,0.6-4.2,0-4.2,0S177.4,27.9,181.1,27.5">
  </path>
  <path class="st3" d="M154.9,21.1c-2.2,0-2.7,2.8-2.7,2.8s0.7-1.3,2.3-1.3c3.1,0,5.8,10.5,3.8,10.5h-5.3c-2.5,0-2.9-0.3-2.5-3.3
		c-1.5,3.4-0.5,5.3,1.9,5.3h6.2C161.5,35.2,158.9,21.1,154.9,21.1">
  </path>
  <path class="st3" d="M223.9,21.1c0,0-1,1.6-1,1.6c2.3,5,2.4,10.4,1.2,10.4h-2.2h-16.1c-0.5,0-2.3,0-2.9-0.7c-0.6-0.7-0.7-1-0.7-4.6
		c0-4.5,0.2-5.8-0.4-6.8l-1.1,1.6c0.3,0.6,0.6,0.9,0.5,4.5c-0.1,3.6,0.5,4.2-0.1,5.3c-0.4,0.8-2.6,0.7-3.1,0.7h-2
		c-0.4,0-1.2,0-1.8-0.4c-0.8-0.5-0.5-1.2-0.5-3.1c0-2.6-0.3-7.6-0.2-13.4l-1.3,1.2c0,0,0.2,6.6,0.2,8.1c0,1.5,0.6,5.4-0.3,6.5
		c-1,1.1-2.4,1.1-4.2,1.1h-14.8c-2.5,0-3.8-1-3.8-5.1c0-4.5,1-6.1,1-6.1l-0.1-0.9c0,0-1.8,2.5-1.8,7.5c0,5.1,0.6,6.5,4.5,6.5l15,0
		c1.5,0,3.9-0.2,4.9-2c0.5,1.2,1.3,2,3,2l2,0c0.9,0,3.2,0.1,3.9-2c0.6,1.8,1.6,2,3.7,2l16.2,0c1.2,0,2.7,0,3.1-0.6
		C225.5,33.8,226.9,28.2,223.9,21.1">
  </path>
  <path class="st3" d="M143.6,22.8c2.3,5,2.4,10.4,1.2,10.4h-17.6c-1.4,0-2.9,0.3-2.9-3.7c0.1-4.9-0.4-7.9-0.6-8.3
		c-1.2-0.1-6.4,3.7-6.5,7.7c0,0.7,0.8,1.4,1.5,2.1c0.7,0.7,1.8,1.4,1.8,2c0,0.2-0.4,0.2-0.6,0.2c-1.3,0-2.5,0-2.5,0h-2.3h-2.4
		c-2.5,0-3.8-1-3.8-5.1c0-4.5,1-6.1,1-6.1l-0.1-0.9c0,0-1.8,2.5-1.8,7.5c0,5.1,0.6,6.5,4.5,6.5h2.5h2.3h2.7c0,0,1,0.1,1-1.6
		c0-1.7-0.5-2.3-1.4-3.4c-0.9-1.1-1.6-1.9-1.6-2.3c0-0.6,2.6-4,5.1-4.8c0.4,1.6,0.3,3.5,0.4,5.3c0.2,4-0.9,6.8,3.9,6.8l15.3,0
		c1.2,0,2.7,0,3.1-0.6c0.5-0.8,1.9-6.4-1.2-13.5C144.7,21.1,143.6,22.8,143.6,22.8">
  </path>
 </g>
</svg>