<svg width="227" height="69" viewBox="0 0 227 69" fill="none" xmlns="http://www.w3.org/2000/svg">
<path d="M153.399 20.6391H166.206V26.1796C169.054 21.4578 173.931 18.8113 179.534 18.8113C186.105 18.8113 191.614 21.9909 194.202 27.0745C197.143 21.9909 203.174 18.8874 209.484 18.8874C219.796 18.8874 227 26.7128 227 37.8891V67.1722H213.672V40.6308C213.672 35.0902 210.284 30.9967 205.221 30.8063C200.065 30.8063 196.603 34.8998 196.603 40.6308V67.1722H183.275V40.6308C183.275 34.7285 180.074 30.8063 175.104 30.8063C170.134 30.8063 166.746 34.7094 166.746 40.6308V67.1722H153.418V20.62L153.399 20.6391ZM100.852 43.106C100.572 28.731 90.7069 18.8493 76.3368 18.8493C61.9666 18.8493 51.2821 29.0356 51.2821 43.5629C51.2821 58.0902 61.6688 69 76.3368 69C87.0958 69 96.4215 63.0977 98.8041 55.0058L87.1702 52.3783C85.5694 55.9197 81.4929 58.5472 76.6904 58.5472C71.888 58.5472 67.8301 55.6531 65.9687 50.9694H65.9873L100.852 43.106ZM76.0762 29.2831C81.0089 29.2831 84.8621 32.1772 86.556 36.4611L64.7029 41.1449C64.8332 40.1929 64.9821 39.5455 64.9821 39.5455C66.1362 33.3767 70.2313 29.2831 76.0948 29.2831M151.817 43.106C151.538 28.731 141.673 18.8493 127.302 18.8493C112.932 18.8493 102.248 29.0356 102.248 43.5629C102.248 58.0902 112.634 69 127.302 69C138.043 69 147.387 63.0977 149.77 55.0058L138.136 52.3783C136.535 55.9197 132.459 58.5472 127.656 58.5472C122.854 58.5472 118.777 55.6531 116.916 50.9694H116.934L151.799 43.106H151.817ZM127.042 29.2831C131.975 29.2831 135.828 32.1772 137.522 36.4611L115.669 41.1449C115.799 40.1929 115.948 39.5455 115.948 39.5455C117.102 33.3767 121.197 29.2831 127.06 29.2831M36.4652 3.04636L49.7371 0V67.1531H36.6327V61.5364C33.096 66.144 27.8654 68.9619 21.4994 68.9619C8.93481 68.9619 0 58.6424 0 43.9818C0 29.3212 8.93481 19.0017 21.4994 19.0017C27.6979 19.0017 32.9099 21.7243 36.4466 26.4272V3.04636H36.4652ZM25.1292 56.7575C32.035 56.7575 36.9864 51.3311 36.9864 44.0008C36.9864 36.6705 32.035 31.2442 25.1292 31.2442C18.2233 31.2442 13.2719 36.6705 13.2719 44.0008C13.2719 51.3311 18.3164 56.7575 25.1292 56.7575Z" fill="white"/>
</svg>
