<svg version="1.1" id="Layer_1" xmlns="http://www.w3.org/2000/svg" xmlns:xlink="http://www.w3.org/1999/xlink" x="0px" y="0px" viewBox="0 0 331.4 75.5" style="enable-background:new 0 0 331.4 75.5;" xml:space="preserve">
 <style type="text/css">
  .st0{fill:#E30613;}
	.st1{fill:#FFD618;}
	.st2{fill-rule:evenodd;clip-rule:evenodd;fill:#E30613;}
 </style>
 <g>
  <g>
   <path class="st0" d="M69,9c-0.1,0-0.2,0-0.3,0c0,0-0.1,0-0.1,0c0,0-0.1,0-0.1,0s-0.1,0-0.1,0c0,0-0.1,0-0.1,0
			c-1.4,0.2-2.5,1.2-2.8,2.6c-5.1,19.6-15.2,34.4-27.5,39.6c11.2-1.5,21.1-8.9,27.8-19.8c-2.1,8-5.8,15.4-11,21.9
			c-5.5,2.5-11.4,3.8-17.4,3.8c-13,0-24.9-6.1-34.4-16.2c-0.3-0.4-0.8-0.6-1.3-0.6c-0.1,0-0.2,0-0.3,0c0,0,0,0,0,0
			c-0.1,0-0.2,0-0.3,0.1l0,0c-0.1,0-0.2,0.1-0.3,0.1c0,0,0,0,0,0c-0.1,0.1-0.2,0.1-0.3,0.2C0.2,40.8,0.1,40.9,0,41
			c8.2,13.8,21.4,23.5,36.7,25.4c-7.9,2.8-16.6,2.5-24.3-0.8c2.1,2.2,4.4,4.1,7,5.8l0,0c0.2,0.1,0.4,0.2,0.5,0.3c0,0,0.1,0,0.1,0
			c0.2,0.1,0.3,0.2,0.5,0.3c0,0,0.1,0,0.1,0.1c0.2,0.1,0.3,0.2,0.5,0.3l0.1,0.1c0.2,0.1,0.3,0.2,0.5,0.2c0.1,0,0.1,0.1,0.2,0.1
			c0.2,0.1,0.3,0.2,0.5,0.2c0.1,0,0.1,0,0.2,0.1c0.2,0.1,0.3,0.1,0.5,0.2c0.1,0,0.1,0,0.2,0.1c0.2,0.1,0.3,0.1,0.5,0.2
			c0,0,0.1,0,0.1,0.1c0.7,0.3,1.4,0.6,2.2,0.8l0.2,0.1c0.1,0,0.3,0.1,0.4,0.1c0.1,0,0.2,0.1,0.3,0.1c0.1,0,0.2,0.1,0.4,0.1
			c0.1,0,0.2,0.1,0.3,0.1c0.1,0,0.2,0.1,0.3,0.1s0.2,0.1,0.3,0.1c0.1,0,0.2,0,0.3,0.1c0.1,0,0.2,0,0.3,0.1c0.1,0,0.2,0,0.3,0.1
			c0.1,0,0.2,0,0.4,0.1c0.1,0,0.2,0,0.3,0c0.1,0,0.2,0,0.4,0.1c0.1,0,0.2,0,0.3,0c0.1,0,0.3,0,0.4,0c0.1,0,0.2,0,0.3,0
			c0.1,0,0.3,0,0.4,0c0.1,0,0.2,0,0.3,0c0.2,0,0.3,0,0.5,0c0.1,0,0.2,0,0.2,0c0.2,0,0.5,0,0.7,0C47,75.5,59,63.9,65.9,46.4l0,0
			c3.7-9.8,5.7-20.1,5.9-30.6c0-0.2,0-0.3,0-0.5c0-0.7,0-1.4,0-2.1v-0.6C71.9,10.9,70.7,9.4,69,9">
   </path>
   <path class="st1" d="M0,41c0.1-0.1,0.2-0.2,0.4-0.3c0.8-0.6,1.9-0.5,2.5,0.3c9.5,10.2,21.5,16.2,34.4,16.2
			c10.4,0,20.2-3.9,28.6-10.7c-2.6,6.9-6.4,13.3-11.4,18.8c-3.9,1.1-8,1.6-12,1.6C24.8,66.8,9.2,56.6,0,41">
   </path>
   <path class="st0" d="M71.8,13.2v-0.6v0c0-0.8-0.3-1.7-0.8-2.3c0,0,0,0,0,0c-0.1-0.2-0.3-0.3-0.4-0.4c0,0-0.1-0.1-0.1-0.1
			c-0.1-0.1-0.2-0.2-0.3-0.3c-0.1-0.1-0.2-0.1-0.3-0.1s-0.2-0.1-0.2-0.1C69.4,9.1,69.2,9.1,69,9c-0.2,0-0.4,0-0.5,0
			c-0.1,0-0.1,0-0.2,0c-0.1,0-0.1,0-0.2,0v0c-1.3,0.3-2.4,1.3-2.7,2.6c-5.1,19.6-16.8,33.7-27.5,39.6c11.2-1.5,21.1-8.9,27.8-19.8
			c-3.1,11.2-8.8,20.7-16.1,27.3c-4.1,1.5-8.4,2.3-12.7,2.3C22.7,61,10.1,53,1.7,40.3c-0.5-0.1-0.9,0.1-1.3,0.4
			C0.2,40.8,0.1,40.9,0,41c8.2,13.8,21.4,23.5,36.7,25.4c-7.9,2.8-16.6,2.5-24.2-0.8c0.5,0.5,1,1,1.4,1.4h0c0.1,0.1,0.2,0.2,0.3,0.3
			c0.2,0.2,0.5,0.4,0.7,0.6c0.1,0.1,0.2,0.2,0.4,0.3c0.3,0.2,0.5,0.5,0.8,0.7c0,0,0.1,0,0.1,0.1c1,0.8,2,1.5,3.1,2.2
			c0.1,0.1,0.2,0.1,0.3,0.2c0.3,0.2,0.5,0.3,0.8,0.5c0.1,0.1,0.3,0.2,0.4,0.3c0.2,0.1,0.5,0.3,0.7,0.4c0.2,0.1,0.3,0.2,0.5,0.3
			c0.2,0.1,0.5,0.2,0.7,0.3c0.2,0.1,0.4,0.2,0.6,0.3c0.2,0.1,0.5,0.2,0.7,0.3c0.2,0.1,0.4,0.2,0.6,0.2c0.2,0.1,0.4,0.2,0.7,0.2
			c0.2,0.1,0.4,0.1,0.6,0.2c0.2,0.1,0.4,0.1,0.7,0.2c0.2,0.1,0.5,0.1,0.7,0.2c0.2,0.1,0.4,0.1,0.6,0.2c0.2,0.1,0.5,0.1,0.7,0.2
			c0.2,0,0.4,0.1,0.6,0.1c0.3,0,0.5,0.1,0.8,0.1c0.2,0,0.4,0.1,0.6,0.1c0.3,0,0.6,0.1,0.9,0.1c0.2,0,0.3,0,0.5,0c0.5,0,0.9,0,1.4,0
			c7.8,0,15.1-3.8,21.2-10.3l0,0c0,0,0,0,0,0c0.4-0.5,0.9-0.9,1.3-1.4c0.1-0.1,0.2-0.2,0.2-0.3c0.4-0.5,0.8-1,1.2-1.5
			c0.1-0.1,0.2-0.2,0.3-0.3c0.4-0.5,0.8-1,1.1-1.5c0.1-0.1,0.2-0.2,0.3-0.4c0.4-0.5,0.7-1.1,1.1-1.6c0.1-0.1,0.2-0.3,0.3-0.4
			c0.3-0.5,0.7-1.1,1-1.6c0.1-0.2,0.2-0.3,0.3-0.5c0.3-0.6,0.6-1.1,0.9-1.7c0.1-0.2,0.2-0.3,0.3-0.5c0.3-0.6,0.6-1.2,0.9-1.7
			c0.1-0.2,0.2-0.4,0.3-0.6c0.3-0.6,0.6-1.2,0.8-1.8c0.1-0.1,0.1-0.2,0.2-0.4l0,0c4.1-9.8,6.4-20.3,6.8-30.9c0,0,0,0,0-0.1
			c0-0.4,0-0.7,0-1.1c0-0.3,0-0.5,0-0.8C71.8,15.1,71.8,14.1,71.8,13.2">
   </path>
   <path class="st0" d="M12.4,2.5c0,0,42.9,2.6,24.8,48C37.2,50.6,104.2-13.4,12.4,2.5">
   </path>
  </g>
  <g>
   <path class="st2" d="M88.5,32.5h10.7c2,0,4.5,0.8,4.5,3.8c0.1,2.1-1.5,3.8-3.5,3.9c-0.2,0-0.3,0-0.5,0H88.5V32.5z M80.1,57.5h8.4
			V46.2H99c2.6,0,4.5,1.1,4.5,5.4c0,3.2,0,4.5,0.8,5.9h9.2c-1.5-1.6-1.6-5.2-1.6-6.7c0-3-0.6-7.7-4.2-8.3v-0.1c3.5-1.3,5-3.7,5-7.4
			c0-3.2-1.4-8.4-10-8.4H80.1V57.5z">
   </path>
   <path class="st2" d="M135.8,45.5h-9.7l4.8-12.3L135.8,45.5z M140.5,57.5h9.1L136,26.6h-10.1l-13.6,30.9h9l2.5-6.4H138L140.5,57.5z
			">
   </path>
   <polygon class="st0" points="159.1,39.9 159.1,26.6 150.7,26.6 150.7,57.5 159.1,57.5 159.1,48.3 164,44.1 174.5,57.5 185.9,57.5 
			170.6,39 184.8,26.6 173.5,26.6 		">
   </polygon>
   <path class="st2" d="M198.4,44.3h11.5c2.9,0,4.5,1.3,4.5,3.7c0.2,1.8-1.1,3.4-2.9,3.6c-0.2,0-0.4,0-0.7,0h-12.4L198.4,44.3z
			 M190,57.5h22c9.3,0,11.2-5.2,11.2-9.4c0-3.3-1.9-6.9-5.5-7.5v-0.1c2.6-0.9,4.2-3.4,4.1-6.2c0-5.7-4.2-7.8-8.7-7.8H190V57.5z
			 M198.4,32.2h10.5c3.5,0,4.3,1.4,4.3,3.3c0,2.3-1.2,3.3-3.2,3.3h-11.7L198.4,32.2z">
   </path>
   <path class="st2" d="M244.5,45.5h-9.7l4.9-12.3L244.5,45.5z M249.2,57.5h9l-13.6-30.9h-10.1L221,57.5h9l2.5-6.4h14.2L249.2,57.5z">
   </path>
   <polygon class="st0" points="285.5,48.2 285.4,48.2 269.2,26.6 259.4,26.6 259.4,57.5 267.6,57.5 267.6,36 267.6,36 284.5,57.5 
			293.6,57.5 293.6,26.6 285.5,26.6 		">
   </polygon>
   <polygon class="st0" points="304.6,39.9 304.6,26.6 296.2,26.6 296.2,57.5 304.6,57.5 304.6,48.3 309.5,44.1 320.1,57.5 
			331.4,57.5 316.1,39 330.3,26.6 319,26.6 		">
   </polygon>
  </g>
 </g>
</svg>